<?xml version="1.0" encoding="UTF-8"?>
<!DOCTYPE svg PUBLIC "-//W3C//DTD SVG 1.1//EN" "http://www.w3.org/Graphics/SVG/1.1/DTD/svg11.dtd">
<!-- Creator: CorelDRAW -->
<svg xmlns="http://www.w3.org/2000/svg" xml:space="preserve" width="211.667mm" height="211.667mm" version="1.1" style="shape-rendering:geometricPrecision; text-rendering:geometricPrecision; image-rendering:optimizeQuality; fill-rule:evenodd; clip-rule:evenodd"
viewBox="0 0 267946.21 267947.35"
 xmlns:xlink="http://www.w3.org/1999/xlink"
 xmlns:xodm="http://www.corel.com/coreldraw/odm/2003">
 <defs>
  <style type="text/css">
   <![CDATA[
    .fil0 {fill:#823CC7}
   ]]>
  </style>
 </defs>
 <g id="Слой_x0020_1">
  <metadata id="CorelCorpID_0Corel-Layer"/>
  <g id="social_github.svg">
   <g id="Page-1">
    <g id="Dribbble-Light-Preview">
     <g id="icons">
      <path id="github-_x005b__x0023_142_x005d_" class="fil0" d="M133973.1 0c73993.31,0 133973.1,61493.67 133973.1,137362.65 0,60676.42 -38343.11,112148.94 -91543.83,130329.12 -6792.38,1353.11 -9203.89,-2934.08 -9203.89,-6591.48 0,-4528.33 160.77,-19318.97 160.77,-37700.04 0,-12807.87 -4287.18,-21167.8 -9096.8,-25428.15 29835.84,-3402.96 61185.56,-15018.37 61185.56,-67777.04 0,-15004.95 -5198.24,-27250.14 -13799.32,-36869.37 1393.36,-3469.93 5988.66,-17443.3 -1312.85,-36360.35 0,0 -11227.03,-3684.24 -36802.53,14080.6 -10704.35,-3041.17 -22172.53,-4568.46 -33560.21,-4622.14 -11387.68,53.67 -22842.44,1580.97 -33533.5,4622.14 -25602.2,-17764.84 -36855.95,-14080.6 -36855.95,-14080.6 -7274.81,18917.05 -2679.51,32890.43 -1299.56,36360.35 -8560.95,9619.23 -13799.32,21864.42 -13799.32,36869.37 0,52624.61 31282.75,64414.33 61038.21,67884.26 -3831.59,3429.67 -7301.52,9485.3 -8507.27,18367.66 -7636.47,3510.05 -27035.82,9579.1 -38986.19,-11414.51 0,0 -7087.2,-13196.38 -20538.15,-14160.98 0,0 -13062.32,-174.19 -910.93,8346.51 0,0 8775.26,4220.22 14871.02,20095.97 0,0 7864.2,24517.09 45135.49,16210.84 66.97,11481.48 187.6,22306.47 187.6,25575.49 0,3630.57 -2465.06,7877.62 -9150.34,6604.77 -53240.97,-18153.34 -91624.21,-69652.58 -91624.21,-130342.41 0,-75868.97 59993.09,-137362.65 133973.1,-137362.65z"/>
     </g>
    </g>
   </g>
  </g>
 </g>
</svg>
