<?xml version="1.0" encoding="UTF-8"?>
<!DOCTYPE svg PUBLIC "-//W3C//DTD SVG 1.1//EN" "http://www.w3.org/Graphics/SVG/1.1/DTD/svg11.dtd">
<!-- Creator: CorelDRAW -->
<svg xmlns="http://www.w3.org/2000/svg" xml:space="preserve" width="176.465mm" height="176.465mm" version="1.1" style="shape-rendering:geometricPrecision; text-rendering:geometricPrecision; image-rendering:optimizeQuality; fill-rule:evenodd; clip-rule:evenodd"
viewBox="0 0 17632.27 17632.25"
 xmlns:xlink="http://www.w3.org/1999/xlink"
 xmlns:xodm="http://www.corel.com/coreldraw/odm/2003">
 <defs>
  <style type="text/css">
   <![CDATA[
    .str0 {stroke:black;stroke-width:7.61;stroke-linejoin:round;stroke-miterlimit:22.9256}
    .fil0 {fill:#000000}
   ]]>
  </style>
 </defs>
 <g id="Слой_x0020_1">
  <metadata id="CorelCorpID_0Corel-Layer"/>
  <path class="fil0 str0" d="M17628.46 8816.13c0,4866.87 -3945.45,8812.32 -8812.33,8812.32 -4866.91,0 -8812.33,-3945.45 -8812.33,-8812.32 0,-4866.92 3945.42,-8812.32 8812.33,-8812.32 4866.88,0 8812.33,3945.4 8812.33,8812.32zm-8496.58 -2306.68c-857.08,356.51 -2570.14,1094.37 -5139.12,2213.62 -417.15,165.94 -635.69,328.25 -655.58,486.88 -33.62,268.24 302.23,373.82 759.56,517.64 62.21,19.55 126.67,39.83 192.73,61.24 449.96,146.28 1055.2,317.42 1369.84,324.21 285.42,6.17 603.97,-111.48 955.67,-353.02 2400.23,-1620.23 3639.33,-2439.16 3717.06,-2456.87 54.9,-12.43 130.94,-28.11 182.5,17.72 51.55,45.82 46.43,132.53 40.98,155.79 -33.22,141.89 -1351.55,1367.5 -2033.8,2001.72 -212.65,197.75 -363.52,337.96 -394.35,370.03 -69.09,71.73 -139.51,139.59 -207.18,204.79 -417.97,402.99 -731.51,705.17 17.37,1198.65 359.8,237.15 647.79,433.22 935.07,628.85 313.72,213.7 626.64,426.79 1031.57,692.21 103.11,67.59 201.63,137.82 297.59,206.2 365.09,260.32 693.09,494.2 1098.37,456.83 235.46,-21.59 478.68,-243.04 602.23,-903.44 291.95,-1560.66 865.81,-4942.22 998.43,-6335.61 11.63,-122.07 -3,-278.32 -14.8,-346.9 -11.72,-68.59 -36.22,-166.32 -125.4,-238.66 -105.57,-85.67 -268.6,-103.74 -341.48,-102.52 -331.43,5.91 -839.99,182.72 -3287.26,1200.63z"/>
 </g>
</svg>
